Coordinates
version=1
nRows=13
nColumns=40
inDegrees=yes

Units are S.I. units (second, meters, Newtons, ...)
Angles are in degrees.

endheader
time	pelvis_tilt	pelvis_list	pelvis_rotation	pelvis_tx	pelvis_ty	pelvis_tz	hip_flexion_r	hip_adduction_r	hip_rotation_r	knee_angle_r	knee_angle_r_beta	ankle_angle_r	subtalar_angle_r	mtp_angle_r	hip_flexion_l	hip_adduction_l	hip_rotation_l	knee_angle_l	knee_angle_l_beta	ankle_angle_l	subtalar_angle_l	mtp_angle_l	lumbar_extension	lumbar_bending	lumbar_rotation	arm_flex_r	arm_add_r	arm_rot_r	elbow_flex_r	pro_sup_r	wrist_flex_r	wrist_dev_r	arm_flex_l	arm_add_l	arm_rot_l	elbow_flex_l	pro_sup_l	wrist_flex_l	wrist_dev_l
      2.93000000	     -3.66781533	     -3.92696723	     -0.06865192	      0.91870833	      0.93536558	      0.42589159	     33.01714499	     -7.00954574	     -6.66707303	     64.28056563	     64.28056563	      4.80141937	    -18.46729306	      8.13186302	     12.89672295	     -3.09753445	    -10.34412582	     18.66055644	     18.66055644	     12.47227383	     -8.25259959	     -1.92253010	     -9.87371238	      4.12920231	      2.61780620	      6.94078539	    -11.43578774	     -0.40731610	     38.64845746	     45.41891878	      0.00000000	      0.00000000	     12.81103590	    -11.34296596	     -0.72555978	     53.09657025	     45.76055876	      0.00000000	      0.00000000
      2.94242857	     -3.73795185	     -4.08783657	     -0.20711597	      0.91741883	      0.93562446	      0.42525387	     33.74926243	     -6.87899308	     -6.88984742	     62.11770288	     62.11770288	      4.75604402	    -18.27429152	      8.15158421	     12.28950506	     -3.21621895	    -10.46973457	     18.28888101	     18.28888101	     12.73843114	     -8.06393779	     -2.03748819	     -9.90011339	      4.34667460	      2.83398964	      4.96584178	    -12.12807010	     -0.47088171	     36.72812913	     45.49071720	      0.00000000	      0.00000000	     13.97858839	    -11.14177753	     -0.91557522	     54.25565493	     45.81225835	      0.00000000	      0.00000000
      2.95485714	     -3.74206416	     -4.22378601	     -0.35933576	      0.91616573	      0.93587500	      0.42473475	     34.25859785	     -6.72312129	     -7.09246920	     59.71520284	     59.71520284	      4.56500733	    -18.06122561	      7.86563951	     11.61702342	     -3.34587321	    -10.75932304	     17.94730440	     17.94730440	     13.03736003	     -7.62779230	     -2.28359812	    -10.03815049	      4.51957361	      3.07053017	      3.22100300	    -12.69977731	     -0.72592680	     34.23143705	     45.60158621	      0.00000000	      0.00000000	     15.07034979	    -10.99390489	     -1.11215376	     55.76658938	     45.87131997	      0.00000000	      0.00000000
      2.96728571	     -3.81562276	     -4.35964033	     -0.45039925	      0.91493834	      0.93585488	      0.42424866	     34.63335804	     -6.63004910	     -7.47297971	     56.99212246	     56.99212246	      3.71846927	    -17.96173769	      5.56827569	     11.10410650	     -3.54191980	    -11.27361015	     17.75335281	     17.75335281	     13.40339897	     -6.72292535	     -2.90398548	    -10.01462327	      4.68151632	      2.25525476	      3.49330486	    -12.34765491	     -2.67621080	     28.20190653	     46.01428034	      0.00000000	      0.00000000	     15.13341423	    -11.55353386	     -1.53279929	     58.39882949	     46.01440908	      0.00000000	      0.00000000
      2.97971429	     -3.91616341	     -4.53750787	     -0.50413560	      0.91368667	      0.93584773	      0.42385105	     34.94998945	     -6.39845005	     -7.77859335	     54.15697120	     54.15697120	      3.59352231	    -17.55122756	      5.78434299	     10.60582188	     -3.68310704	    -11.31616486	     17.46508064	     17.46508064	     13.64604785	     -6.61930044	     -2.93828592	     -9.99946826	      4.94242595	      2.10892511	      1.68537195	    -12.92933149	     -2.91314305	     27.08867820	     46.06830398	      0.00000000	      0.00000000	     16.10729267	    -11.56340532	     -1.82420116	     59.37898064	     46.06584085	      0.00000000	      0.00000000
      2.99214286	     -3.98320456	     -4.71836793	     -0.56134760	      0.91256199	      0.93576017	      0.42362589	     35.09634657	     -6.12592850	     -8.09351889	     51.13069175	     51.13069175	      3.44429286	    -17.01802346	      5.85908102	     10.07360908	     -3.85586730	    -11.43079270	     17.20533686	     17.20533686	     13.94700948	     -6.33158460	     -3.07435144	    -10.03931942	      5.18370333	      2.23674394	     -0.08542215	    -13.45125086	     -3.21096459	     25.75086306	     46.13983936	      0.00000000	      0.00000000	     17.05958489	    -11.41802359	     -2.10979457	     60.70804481	     46.12187009	      0.00000000	      0.00000000
      3.00457143	     -4.01837457	     -4.78643575	     -0.65255602	      0.91155544	      0.93555273	      0.42369057	     34.99621610	     -5.92088616	     -8.38811269	     47.70311182	     47.70311182	      2.14109171	    -16.77893616	      2.63856402	      9.57703965	     -4.02216426	    -11.97849970	     17.12798309	     17.12798309	     14.44091317	     -5.43629593	     -3.28971958	    -10.13760922	      5.21800944	      2.19607913	     -0.37492993	    -12.84016234	    -11.81895633	     21.63685739	     47.21645783	      0.00000000	      0.00000000	     17.45221505	    -11.40016129	     -2.85676251	     63.27908337	     46.54254114	      0.00000000	      0.00000000
      3.01700000	     -4.15251608	     -4.87878044	     -0.68937449	      0.91064703	      0.93517809	      0.42378691	     34.97885684	     -5.67369569	     -8.70573028	     44.35857491	     44.35857491	      2.08183299	    -15.78453336	      2.98883216	      9.13806442	     -4.10892881	    -12.02749504	     16.90669082	     16.90669082	     14.73557949	     -5.26941490	     -3.41938027	    -10.01350612	      5.34024988	      2.00434777	     -1.97439152	    -13.28638135	    -11.93317091	     20.95747162	     47.24413008	      0.00000000	      0.00000000	     18.17685821	    -11.51152337	     -3.05190312	     64.25031495	     46.58134800	      0.00000000	      0.00000000
      3.02942857	     -4.14422046	     -4.91043046	     -0.78570790	      0.91002390	      0.93488533	      0.42416475	     34.68291098	     -5.43234737	     -9.03024932	     40.88215239	     40.88215239	      1.99779357	    -14.52837404	      3.00941728	      8.48300424	     -4.17444451	    -12.31632732	     16.64406896	     16.64406896	     15.06896438	     -4.85787482	     -3.63324544	    -10.11884844	      5.29726280	      2.19445648	     -3.68600642	    -13.69514488	    -12.17357291	     20.32226617	     47.28347577	      0.00000000	      0.00000000	     18.80654005	    -11.42655053	     -3.32107932	     66.00974554	     46.64205201	      0.00000000	      0.00000000
      3.04185714	     -4.22628810	     -4.91591110	     -0.86735025	      0.90952714	      0.93443737	      0.42460418	     34.34345249	     -5.19006896	     -9.40978711	     37.27267674	     37.27267674	      1.80555865	    -13.05867573	      3.07956371	      7.90607609	     -4.19585444	    -12.53574977	     16.34115682	     16.34115682	     15.37653803	     -4.48259301	     -3.81607374	    -10.05388161	      5.28947668	      2.09807360	     -5.24773626	    -14.02059976	    -12.44608888	     19.92843187	     47.31592706	      0.00000000	      0.00000000	     19.20207250	    -11.52266795	     -3.59978620	     67.49690677	     46.69822362	      0.00000000	      0.00000000
      3.05428571	     -4.28918414	     -4.82813454	     -0.97321762	      0.90924301	      0.93387290	      0.42519799	     33.91063207	     -5.00269155	     -9.81212638	     33.69316891	     33.69316891	      1.59221804	    -11.44340765	      3.28530497	      7.26803363	     -4.11554405	    -12.80252427	     15.99840976	     15.99840976	     15.68896807	     -4.16254705	     -3.98564308	     -9.98635767	      5.20330808	      2.03171001	     -6.76057327	    -14.28023204	    -12.69739199	     19.66765974	     47.33929844	      0.00000000	      0.00000000	     19.53520962	    -11.64639675	     -3.89019496	     68.89463625	     46.75190187	      0.00000000	      0.00000000
      3.06671429	     -4.29632007	     -4.76819264	     -1.10172571	      0.90935009	      0.93329848	      0.42608447	     33.30268389	     -4.72483144	    -10.26172562	     30.18176347	     30.18176347	      1.43539646	     -9.62894340	      3.58967571	      6.48731671	     -4.06426481	    -13.03021100	     15.56698436	     15.56698436	     15.99946009	     -3.79491441	     -4.15528703	     -9.90384260	      5.00460029	      2.00455693	     -8.26309244	    -14.50360515	    -12.94907106	     19.54318411	     47.35522317	      0.00000000	      0.00000000	     19.77921416	    -11.70465604	     -4.17350978	     70.34932525	     46.80513223	      0.00000000	      0.00000000
      3.07914286	     -4.13028002	     -4.53616500	     -1.27010505	      0.90975934	      0.93273225	      0.42705817	     32.54110038	     -4.67312945	    -10.92492616	     27.03999267	     27.03999267	      1.38627944	     -7.31773885	      3.80373952	      5.41217370	     -3.82783324	    -13.49987840	     14.98852878	     14.98852878	     16.29225172	     -3.17725009	     -4.46349176	    -10.09250541	      4.62969192	      2.02585521	     -9.94652557	    -14.63195164	    -13.48589486	     20.25441349	     47.35585235	      0.00000000	      0.00000000	     19.66421832	    -11.82028210	     -4.69342395	     72.86954701	     46.90272568	      0.00000000	      0.00000000
